<mxfile host="app.diagrams.net" modified="2020-05-09T07:19:39.131Z" agent="5.0 (Windows NT 10.0; Win64; x64) AppleWebKit/537.36 (KHTML, like Gecko) Chrome/81.0.4044.138 Safari/537.36" etag="ktsE-8wy9QtXPndIJjwa" version="13.0.9" type="github">
  <diagram id="4wqxYKl0wdV1-M32ozE4" name="第 1 页">
    <mxGraphModel dx="1422" dy="762" grid="1" gridSize="10" guides="1" tooltips="1" connect="1" arrows="1" fold="1" page="1" pageScale="1" pageWidth="1920" pageHeight="1200" math="0" shadow="0">
      <root>
        <mxCell id="0" />
        <mxCell id="1" parent="0" />
        <mxCell id="u-Iog4Q-I7RjvqvaicYg-3" style="edgeStyle=orthogonalEdgeStyle;rounded=0;orthogonalLoop=1;jettySize=auto;html=1;" edge="1" parent="1" source="u-Iog4Q-I7RjvqvaicYg-1" target="u-Iog4Q-I7RjvqvaicYg-2">
          <mxGeometry relative="1" as="geometry" />
        </mxCell>
        <mxCell id="u-Iog4Q-I7RjvqvaicYg-5" style="edgeStyle=orthogonalEdgeStyle;rounded=0;orthogonalLoop=1;jettySize=auto;html=1;exitX=0.5;exitY=1;exitDx=0;exitDy=0;entryX=0;entryY=0.5;entryDx=0;entryDy=0;" edge="1" parent="1" source="u-Iog4Q-I7RjvqvaicYg-1" target="u-Iog4Q-I7RjvqvaicYg-4">
          <mxGeometry relative="1" as="geometry" />
        </mxCell>
        <mxCell id="u-Iog4Q-I7RjvqvaicYg-16" style="edgeStyle=orthogonalEdgeStyle;rounded=0;orthogonalLoop=1;jettySize=auto;html=1;" edge="1" parent="1" source="u-Iog4Q-I7RjvqvaicYg-1" target="u-Iog4Q-I7RjvqvaicYg-15">
          <mxGeometry relative="1" as="geometry" />
        </mxCell>
        <mxCell id="u-Iog4Q-I7RjvqvaicYg-1" value="sql" style="rounded=0;whiteSpace=wrap;html=1;" vertex="1" parent="1">
          <mxGeometry x="400" y="110" width="150" height="40" as="geometry" />
        </mxCell>
        <mxCell id="u-Iog4Q-I7RjvqvaicYg-7" style="edgeStyle=orthogonalEdgeStyle;rounded=0;orthogonalLoop=1;jettySize=auto;html=1;exitX=1;exitY=0.5;exitDx=0;exitDy=0;entryX=0.5;entryY=0;entryDx=0;entryDy=0;" edge="1" parent="1" source="u-Iog4Q-I7RjvqvaicYg-2" target="u-Iog4Q-I7RjvqvaicYg-6">
          <mxGeometry relative="1" as="geometry" />
        </mxCell>
        <mxCell id="u-Iog4Q-I7RjvqvaicYg-2" value="获取表名" style="rounded=0;whiteSpace=wrap;html=1;" vertex="1" parent="1">
          <mxGeometry x="690" y="100" width="120" height="60" as="geometry" />
        </mxCell>
        <mxCell id="u-Iog4Q-I7RjvqvaicYg-10" style="edgeStyle=orthogonalEdgeStyle;rounded=0;orthogonalLoop=1;jettySize=auto;html=1;entryX=0;entryY=0.5;entryDx=0;entryDy=0;" edge="1" parent="1" source="u-Iog4Q-I7RjvqvaicYg-4" target="u-Iog4Q-I7RjvqvaicYg-9">
          <mxGeometry relative="1" as="geometry" />
        </mxCell>
        <mxCell id="u-Iog4Q-I7RjvqvaicYg-4" value="获取条件" style="rounded=0;whiteSpace=wrap;html=1;" vertex="1" parent="1">
          <mxGeometry x="590" y="420" width="120" height="60" as="geometry" />
        </mxCell>
        <mxCell id="u-Iog4Q-I7RjvqvaicYg-11" style="edgeStyle=orthogonalEdgeStyle;rounded=0;orthogonalLoop=1;jettySize=auto;html=1;exitX=0.5;exitY=1;exitDx=0;exitDy=0;" edge="1" parent="1" source="u-Iog4Q-I7RjvqvaicYg-6" target="u-Iog4Q-I7RjvqvaicYg-9">
          <mxGeometry relative="1" as="geometry" />
        </mxCell>
        <mxCell id="u-Iog4Q-I7RjvqvaicYg-6" value="获取所有表记录" style="rounded=0;whiteSpace=wrap;html=1;" vertex="1" parent="1">
          <mxGeometry x="860" y="240" width="120" height="60" as="geometry" />
        </mxCell>
        <mxCell id="u-Iog4Q-I7RjvqvaicYg-13" style="edgeStyle=orthogonalEdgeStyle;rounded=0;orthogonalLoop=1;jettySize=auto;html=1;entryX=1;entryY=0.5;entryDx=0;entryDy=0;" edge="1" parent="1" source="u-Iog4Q-I7RjvqvaicYg-9" target="u-Iog4Q-I7RjvqvaicYg-12">
          <mxGeometry relative="1" as="geometry">
            <Array as="points">
              <mxPoint x="920" y="590" />
            </Array>
          </mxGeometry>
        </mxCell>
        <mxCell id="u-Iog4Q-I7RjvqvaicYg-14" value="得到数据" style="edgeLabel;html=1;align=center;verticalAlign=middle;resizable=0;points=[];" vertex="1" connectable="0" parent="u-Iog4Q-I7RjvqvaicYg-13">
          <mxGeometry x="-0.2933" y="-33" relative="1" as="geometry">
            <mxPoint as="offset" />
          </mxGeometry>
        </mxCell>
        <mxCell id="u-Iog4Q-I7RjvqvaicYg-9" value="数据条件做关联" style="rounded=0;whiteSpace=wrap;html=1;" vertex="1" parent="1">
          <mxGeometry x="860" y="420" width="120" height="60" as="geometry" />
        </mxCell>
        <mxCell id="u-Iog4Q-I7RjvqvaicYg-12" value="过滤后得数据" style="rounded=0;whiteSpace=wrap;html=1;" vertex="1" parent="1">
          <mxGeometry x="350" y="560" width="120" height="60" as="geometry" />
        </mxCell>
        <mxCell id="u-Iog4Q-I7RjvqvaicYg-15" value="查询出来得到数据" style="rounded=0;whiteSpace=wrap;html=1;" vertex="1" parent="1">
          <mxGeometry x="150" y="310" width="120" height="60" as="geometry" />
        </mxCell>
      </root>
    </mxGraphModel>
  </diagram>
</mxfile>
